#!OML:ASF H:\Male1\Project 1\Capture day 1\Session 1\Male1.ASF
:FULLY-SPECIFIED
:DEGREES
278
root 16.565 15.5001 -0.462727 174.43 -79.293 -175.429
lowerback 7.99369 1.53317 -1.18113
upperback 3.39325 1.8145 -1.17503
thorax -0.972544 0.854147 -0.70304
lowerneck -10.8082 2.90596 5.27681
upperneck 5.68369 3.25512 -1.67171
head 3.95076 1.65422 -1.28458
rclavicle 3.85642e-014 1.19271e-015
rhumerus -38.9881 16.8878 -89.2106
rradius 43.6877
rwrist -22.3465
rhand -15.2469 2.96238
rfingers 7.12502
rthumb 10.9266 -26.7333
lclavicle 3.85642e-014 1.19271e-015
lhumerus 1.65624 9.48362 36.5504
lradius 57.8926
lwrist -6.37744
lhand -59.9793 20.5036
lfingers 7.12502
lthumb -32.1321 47.683
rfemur -2.84294 16.2467 21.2134
rtibia 21.5417
rfoot -29.2373 -31.7789
rtoes -16.5063
lfemur -2.4515 -11.6397 -19.8004
ltibia 23.3104
lfoot -23.6697 26.2563
ltoes -1.52999
279
root 16.5688 15.4962 -0.518871 175.104 -79.8226 -176.129
lowerback 7.7979 1.52156 -1.1592
upperback 3.42834 1.80466 -1.25195
thorax -0.825142 0.849803 -0.787663
lowerneck -10.6501 2.81662 5.06303
upperneck 5.67089 3.1185 -1.03621
head 3.88724 1.61088 -1.04204
rclavicle -1.38155e-014 -1.31198e-014
rhumerus -39.0566 16.483 -89.048
rradius 43.2071
rwrist -21.6761
rhand -14.6063 2.13652
rfingers 7.12502
rthumb 11.5445 -27.5255
lclavicle -1.38155e-014 -1.31198e-014
lhumerus 0.450118 7.42759 38.9231
lradius 58.8154
lwrist -6.21722
lhand -59.418 22.2376
lfingers 7.12502
lthumb -31.5977 49.5234
rfemur -2.73893 15.9662 21.287
rtibia 21.5707
rfoot -29.5765 -31.9711
rtoes -16.549
lfemur -2.51334 -11.8165 -19.7442
ltibia 23.3227
lfoot -23.4046 26.1204
ltoes -2.14833
280
root 16.5752 15.494 -0.574462 176.655 -80.4542 -177.625
lowerback 7.54729 1.44709 -1.32929
upperback 3.46148 1.69994 -1.32045
thorax -0.655935 0.796299 -0.747101
lowerneck -10.8985 2.76646 4.94578
upperneck 5.96286 3.00908 -0.560353
head 4.02301 1.57919 -0.865311
rclavicle 1.56046e-014 -2.38542e-015
rhumerus -39.0531 16.5551 -89.0462
rradius 42.6551
rwrist -21.5889
rhand -14.2792 1.33994
rfingers 7.12502
rthumb 11.8599 -28.3042
lclavicle 1.56046e-014 -2.38542e-015
lhumerus -0.488667 5.16555 41.1997
lradius 59.6491
lwrist -6.28155
lhand -58.9021 23.0778
lfingers 7.12502
lthumb -31.1061 50.459
rfemur -2.76453 15.5659 21.1687
rtibia 21.6423
rfoot -29.9088 -31.9405
rtoes -15.5254
lfemur -2.68335 -12.0872 -19.808
ltibia 23.2976
lfoot -23.118 25.9503
ltoes -2.37747
281
root 16.5852 15.4932 -0.632673 177.287 -81.0531 -178.291
lowerback 7.5122 1.37653 -1.37136
upperback 3.46621 1.604 -1.3675
thorax -0.631739 0.748364 -0.76333
lowerneck -11.2391 2.83885 4.90765
upperneck 6.31534 3.03242 0.012241
head 4.20496 1.62143 -0.658357
rclavicle -1.13307e-014 1.39149e-014
rhumerus -39.1115 16.7936 -89.2355
rradius 42.0579
rwrist -21.7921
rhand -14.1841 0.979909
rfingers 7.12502
rthumb 11.9516 -28.6589
lclavicle -1.13307e-014 1.39149e-014
lhumerus -1.2328 2.3248 43.1673
lradius 60.5554
lwrist -6.34063
lhand -58.9605 23.9822
lfingers 7.12502
lthumb -31.1617 51.3527
rfemur -2.6955 15.2266 21.2799
rtibia 21.731
rfoot -30.2308 -31.8511
rtoes -13.958
lfemur -2.75238 -12.3239 -19.6919
ltibia 23.2568
lfoot -22.7767 25.7965
ltoes -3.07784
282
root 16.6002 15.4905 -0.693693 175.916 -81.6163 -177.042
lowerback 7.61997 1.32412 -1.15184
upperback 3.47768 1.54791 -1.33443
thorax -0.674751 0.72256 -0.85026
lowerneck -11.1489 2.61477 4.68731
upperneck 6.54231 2.70879 0.610548
head 4.24268 1.48825 -0.440167
rclavicle -1.37161e-014 1.66979e-014
rhumerus -39.1528 16.9357 -89.3602
rradius 41.4881
rwrist -21.6221
rhand -14.238 0.957271
rfingers 7.12502
rthumb 11.8996 -28.6846
lclavicle -1.37161e-014 1.66979e-014
lhumerus -1.78903 -1.20942 44.7643
lradius 61.5826
lwrist -6.48924
lhand -58.5873 17.512
lfingers 7.12502
lthumb -30.806 44.9503
rfemur -2.53224 14.9612 21.7715
rtibia 21.8022
rfoot -30.5365 -32.0654
rtoes -13.7115
lfemur -2.7443 -12.3861 -19.2205
ltibia 23.2331
lfoot -22.3282 25.5299
ltoes -4.1563
283
root 16.6144 15.4868 -0.754508 174.928 -82.0952 -176.186
lowerback 7.63844 1.28347 -1.03463
upperback 3.54738 1.50197 -1.29028
thorax -0.611551 0.699755 -0.866334
lowerneck -11.0658 2.40891 4.52596
upperneck 6.67336 2.42865 0.926726
head 4.25791 1.36302 -0.325097
rclavicle 4.96962e-015 2.78299e-014
rhumerus -39.102 17.0766 -89.3623
rradius 41.0569
rwrist -21.2817
rhand -14.1969 1.08421
rfingers 7.12502
rthumb 11.9392 -28.5553
lclavicle 4.96962e-015 2.78299e-014
lhumerus -2.10518 -5.03801 46.0404
lradius 62.6622
lwrist -7.18935
lhand -56.4643 16.2442
lfingers 7.12502
lthumb -28.7799 44.0456
rfemur -2.34657 14.6954 22.1795
rtibia 21.8116
rfoot -30.8253 -32.311
rtoes -13.9427
lfemur -2.7508 -12.3779 -18.8268
ltibia 23.2713
lfoot -21.9754 25.2118
ltoes -4.82972
284
root 16.6298 15.4851 -0.815479 175.938 -82.6097 -177.308
lowerback 7.64711 1.23449 -1.23131
upperback 3.60632 1.42207 -1.29108
thorax -0.560915 0.656674 -0.749976
lowerneck -11.082 2.54273 4.71655
upperneck 6.59207 2.58607 0.848345
head 4.24052 1.44032 -0.374485
rclavicle -1.17283e-014 1.11319e-014
rhumerus -39.0167 17.2357 -89.3108
rradius 40.7373
rwrist -20.9463
rhand -13.9536 0.969639
rfingers 7.12502
rthumb 12.1739 -28.6561
lclavicle -1.17283e-014 1.11319e-014
lhumerus -2.04986 -9.02685 46.9503
lradius 63.705
lwrist -8.35868
lhand -58.9383 18.9717
lfingers 7.12502
lthumb -31.1406 46.3463
rfemur -2.19105 14.3429 22.2711
rtibia 21.799
rfoot -30.9898 -32.3601
rtoes -13.3291
lfemur -2.82488 -12.522 -18.7468
ltibia 23.3338
lfoot -21.7427 24.9349
ltoes -5.06214
285
root 16.6485 15.484 -0.876131 175.919 -83.0788 -177.355
lowerback 7.66398 1.16882 -1.29349
upperback 3.655 1.33102 -1.23011
thorax -0.523278 0.609515 -0.64491
lowerneck -10.7509 2.48473 4.51722
upperneck 6.34609 2.55124 0.968983
head 4.07777 1.41862 -0.306032
rclavicle 2.5842e-015 -3.97569e-016
rhumerus -38.7846 17.5055 -89.2426
rradius 40.4029
rwrist -20.6757
rhand -13.7697 0.906448
rfingers 7.12502
rthumb 12.3512 -28.7087
lclavicle 2.5842e-015 -3.97569e-016
lhumerus -1.62525 -13.1671 47.4216
lradius 64.7001
lwrist -9.87625
lhand -58.9307 20.9458
lfingers 7.12502
lthumb -31.1333 48.3218
rfemur -2.12744 13.9976 22.5169
rtibia 21.8421
rfoot -31.2419 -32.3509
rtoes -12.319
lfemur -2.92682 -12.6931 -18.4934
ltibia 23.3366
lfoot -21.4721 24.7008
ltoes -5.58995
286
root 16.6679 15.4807 -0.936364 175.114 -83.504 -176.621
lowerback 7.66867 1.06394 -1.2217
upperback 3.76369 1.19615 -1.17042
thorax -0.413837 0.540772 -0.61198
lowerneck -10.8492 2.55159 4.37894
upperneck 6.23832 2.65769 0.975026
head 4.05783 1.46652 -0.271475
rclavicle 2.78299e-015 0
rhumerus -38.3422 17.9084 -89.2272
rradius 40.0665
rwrist -20.5211
rhand -13.7429 1.24326
rfingers 7.12502
rthumb 12.377 -28.3703
lclavicle 2.78299e-015 0
lhumerus -0.788039 -17.3165 47.2708
lradius 66.0403
lwrist -10.686
lhand -58.6705 16.1249
lfingers 7.12502
lthumb -30.8853 43.5481
rfemur -2.07119 13.687 22.8632
rtibia 21.9139
rfoot -31.7379 -32.2871
rtoes -11.1776
lfemur -2.97587 -12.9208 -18.1574
ltibia 23.2965
lfoot -21.1973 24.5676
ltoes -6.34704
287
root 16.6879 15.4766 -0.996677 175.416 -84.0021 -176.981
lowerback 7.64435 0.931269 -1.2541
upperback 3.89121 1.01634 -1.16016
thorax -0.269922 0.448023 -0.567649
lowerneck -10.8745 2.52498 4.20039
upperneck 6.22064 2.65723 0.890789
head 4.05428 1.45811 -0.26781
rclavicle -9.93923e-015 -1.98785e-015
rhumerus -37.8467 18.3164 -89.212
rradius 39.7726
rwrist -20.5538
rhand -13.7219 1.48486
rfingers 7.12502
rthumb 12.3973 -28.1275
lclavicle -9.93923e-015 -1.98785e-015
lhumerus 0.67042 -21.4259 46.3792
lradius 67.5321
lwrist -10.8488
lhand -57.7844 15.7004
lfingers 7.12502
lthumb -30.0402 43.2804
rfemur -2.01711 13.338 23.0538
rtibia 21.941
rfoot -32.0714 -32.3311
rtoes -10.6053
lfemur -3.06389 -13.2854 -17.9766
ltibia 23.2968
lfoot -20.9388 24.5059
ltoes -7.03331
288
root 16.7084 15.4734 -1.05728 175.621 -84.5102 -177.226
lowerback 7.58099 0.833268 -1.21985
upperback 3.99004 0.888613 -1.17247
thorax -0.132358 0.383041 -0.588096
lowerneck -10.6043 2.44655 4.03913
upperneck 5.97443 2.60672 0.773367
head 3.90984 1.41975 -0.286789
rclavicle -1.5207e-014 -5.1684e-015
rhumerus -37.4707 18.5837 -89.2175
rradius 39.544
rwrist -20.726
rhand -13.8052 1.47826
rfingers 7.12502
rthumb 12.3169 -28.139
lclavicle -1.5207e-014 -5.1684e-015
lhumerus 2.94322 -25.499 44.6899
lradius 68.8001
lwrist -12.0088
lhand -58.4039 17.102
lfingers 7.12502
lthumb -30.631 44.5732
rfemur -1.99667 12.9769 23.2544
rtibia 21.9682
rfoot -32.1755 -32.5049
rtoes -10.2969
lfemur -3.16108 -13.7224 -17.7759
ltibia 23.281
lfoot -20.7673 24.4198
ltoes -7.42522
